<svg width="361" height="193" viewBox="0 0 361 193" fill="none" xmlns="http://www.w3.org/2000/svg">
<rect width="361" height="193" fill="#0B0C10"/>
<path d="M75.0582 169V154.455H80.1435C81.1567 154.455 81.9924 154.63 82.6506 154.98C83.3087 155.326 83.7988 155.792 84.1207 156.379C84.4427 156.962 84.6037 157.608 84.6037 158.318C84.6037 158.943 84.4924 159.459 84.2699 159.866C84.0521 160.274 83.7633 160.596 83.4034 160.832C83.0483 161.069 82.6624 161.244 82.2457 161.358V161.5C82.6908 161.528 83.1383 161.685 83.5881 161.969C84.0379 162.253 84.4143 162.66 84.7173 163.19C85.0204 163.721 85.1719 164.369 85.1719 165.136C85.1719 165.866 85.0062 166.521 84.6747 167.104C84.3433 167.686 83.8201 168.148 83.1051 168.489C82.3902 168.83 81.4598 169 80.3139 169H75.0582ZM76.8196 167.438H80.3139C81.4645 167.438 82.2813 167.215 82.7642 166.77C83.2519 166.32 83.4957 165.776 83.4957 165.136C83.4957 164.644 83.3703 164.189 83.1193 163.773C82.8684 163.351 82.5109 163.015 82.0469 162.764C81.5829 162.509 81.0336 162.381 80.3991 162.381H76.8196V167.438ZM76.8196 160.847H80.0866C80.617 160.847 81.0952 160.742 81.5213 160.534C81.9522 160.326 82.2931 160.032 82.544 159.653C82.7997 159.275 82.9276 158.83 82.9276 158.318C82.9276 157.679 82.705 157.137 82.2599 156.692C81.8149 156.242 81.1094 156.017 80.1435 156.017H76.8196V160.847ZM88.0661 169V154.455H92.9808C94.1172 154.455 95.05 154.649 95.7791 155.037C96.5083 155.42 97.0481 155.948 97.3984 156.621C97.7488 157.293 97.924 158.058 97.924 158.915C97.924 159.772 97.7488 160.532 97.3984 161.195C97.0481 161.857 96.5107 162.378 95.7862 162.757C95.0618 163.131 94.1361 163.318 93.0092 163.318H89.032V161.727H92.9524C93.7289 161.727 94.3539 161.614 94.8274 161.386C95.3056 161.159 95.6513 160.837 95.8643 160.42C96.0821 159.999 96.1911 159.497 96.1911 158.915C96.1911 158.332 96.0821 157.823 95.8643 157.388C95.6465 156.952 95.2985 156.616 94.8203 156.379C94.3421 156.138 93.71 156.017 92.924 156.017H89.8274V169H88.0661ZM94.9126 162.466L98.4922 169H96.4467L92.924 162.466H94.9126ZM113.132 161.727C113.132 163.261 112.855 164.587 112.301 165.705C111.747 166.822 110.987 167.684 110.021 168.29C109.055 168.896 107.952 169.199 106.711 169.199C105.471 169.199 104.368 168.896 103.402 168.29C102.436 167.684 101.676 166.822 101.122 165.705C100.568 164.587 100.291 163.261 100.291 161.727C100.291 160.193 100.568 158.867 101.122 157.75C101.676 156.633 102.436 155.771 103.402 155.165C104.368 154.559 105.471 154.256 106.711 154.256C107.952 154.256 109.055 154.559 110.021 155.165C110.987 155.771 111.747 156.633 112.301 157.75C112.855 158.867 113.132 160.193 113.132 161.727ZM111.427 161.727C111.427 160.468 111.217 159.405 110.795 158.538C110.378 157.672 109.813 157.016 109.098 156.571C108.387 156.126 107.592 155.903 106.711 155.903C105.831 155.903 105.033 156.126 104.318 156.571C103.608 157.016 103.042 157.672 102.62 158.538C102.204 159.405 101.995 160.468 101.995 161.727C101.995 162.987 102.204 164.05 102.62 164.916C103.042 165.783 103.608 166.438 104.318 166.884C105.033 167.329 105.831 167.551 106.711 167.551C107.592 167.551 108.387 167.329 109.098 166.884C109.813 166.438 110.378 165.783 110.795 164.916C111.217 164.05 111.427 162.987 111.427 161.727ZM114.692 156.017V154.455H125.602V156.017H121.028V169H119.266V156.017H114.692ZM128.32 169V154.455H130.081V160.932H137.837V154.455H139.598V169H137.837V162.494H130.081V169H128.32ZM143.125 169V154.455H151.903V156.017H144.886V160.932H151.449V162.494H144.886V167.438H152.017V169H143.125ZM155.078 169V154.455H159.993C161.129 154.455 162.062 154.649 162.791 155.037C163.52 155.42 164.06 155.948 164.41 156.621C164.761 157.293 164.936 158.058 164.936 158.915C164.936 159.772 164.761 160.532 164.41 161.195C164.06 161.857 163.522 162.378 162.798 162.757C162.074 163.131 161.148 163.318 160.021 163.318H156.044V161.727H159.964C160.741 161.727 161.366 161.614 161.839 161.386C162.317 161.159 162.663 160.837 162.876 160.42C163.094 159.999 163.203 159.497 163.203 158.915C163.203 158.332 163.094 157.823 162.876 157.388C162.658 156.952 162.31 156.616 161.832 156.379C161.354 156.138 160.722 156.017 159.936 156.017H156.839V169H155.078ZM161.924 162.466L165.504 169H163.458L159.936 162.466H161.924ZM175.825 158.091C175.74 157.371 175.394 156.812 174.788 156.415C174.182 156.017 173.439 155.818 172.558 155.818C171.914 155.818 171.351 155.922 170.868 156.131C170.39 156.339 170.016 156.625 169.746 156.99C169.481 157.355 169.348 157.769 169.348 158.233C169.348 158.621 169.44 158.955 169.625 159.234C169.814 159.509 170.056 159.739 170.349 159.923C170.643 160.103 170.951 160.252 171.273 160.371C171.595 160.484 171.891 160.577 172.161 160.648L173.638 161.045C174.017 161.145 174.438 161.282 174.902 161.457C175.371 161.633 175.818 161.872 176.244 162.175C176.675 162.473 177.03 162.857 177.31 163.325C177.589 163.794 177.729 164.369 177.729 165.051C177.729 165.837 177.523 166.547 177.111 167.182C176.704 167.816 176.107 168.321 175.321 168.695C174.54 169.069 173.59 169.256 172.473 169.256C171.431 169.256 170.529 169.088 169.767 168.751C169.009 168.415 168.413 167.946 167.977 167.345C167.546 166.744 167.303 166.045 167.246 165.25H169.064C169.111 165.799 169.296 166.254 169.618 166.614C169.945 166.969 170.357 167.234 170.854 167.409C171.356 167.58 171.895 167.665 172.473 167.665C173.145 167.665 173.749 167.556 174.284 167.338C174.819 167.116 175.243 166.808 175.555 166.415C175.868 166.017 176.024 165.553 176.024 165.023C176.024 164.54 175.889 164.147 175.619 163.844C175.349 163.541 174.994 163.295 174.554 163.105C174.114 162.916 173.638 162.75 173.126 162.608L171.337 162.097C170.2 161.77 169.301 161.304 168.638 160.697C167.975 160.091 167.643 159.298 167.643 158.318C167.643 157.504 167.864 156.794 168.304 156.188C168.749 155.577 169.346 155.103 170.094 154.767C170.847 154.426 171.687 154.256 172.615 154.256C173.553 154.256 174.386 154.424 175.115 154.76C175.844 155.091 176.422 155.546 176.848 156.124C177.279 156.701 177.506 157.357 177.53 158.091H175.825ZM185.454 156.017V154.455H196.363V156.017H191.789V169H190.028V156.017H185.454ZM199.082 169V154.455H207.86V156.017H200.843V160.932H207.406V162.494H200.843V167.438H207.974V169H199.082ZM222.739 159H220.978C220.874 158.493 220.692 158.048 220.431 157.665C220.175 157.281 219.863 156.959 219.494 156.699C219.129 156.434 218.724 156.235 218.279 156.102C217.834 155.97 217.37 155.903 216.887 155.903C216.006 155.903 215.209 156.126 214.494 156.571C213.783 157.016 213.218 157.672 212.796 158.538C212.379 159.405 212.171 160.468 212.171 161.727C212.171 162.987 212.379 164.05 212.796 164.916C213.218 165.783 213.783 166.438 214.494 166.884C215.209 167.329 216.006 167.551 216.887 167.551C217.37 167.551 217.834 167.485 218.279 167.352C218.724 167.22 219.129 167.023 219.494 166.763C219.863 166.498 220.175 166.173 220.431 165.79C220.692 165.402 220.874 164.956 220.978 164.455H222.739C222.607 165.198 222.365 165.863 222.015 166.45C221.665 167.037 221.229 167.537 220.708 167.949C220.187 168.356 219.603 168.666 218.954 168.879C218.31 169.092 217.621 169.199 216.887 169.199C215.647 169.199 214.543 168.896 213.577 168.29C212.612 167.684 211.852 166.822 211.298 165.705C210.744 164.587 210.467 163.261 210.467 161.727C210.467 160.193 210.744 158.867 211.298 157.75C211.852 156.633 212.612 155.771 213.577 155.165C214.543 154.559 215.647 154.256 216.887 154.256C217.621 154.256 218.31 154.362 218.954 154.575C219.603 154.788 220.187 155.101 220.708 155.513C221.229 155.92 221.665 156.417 222.015 157.004C222.365 157.587 222.607 158.252 222.739 159ZM225.586 169V154.455H227.347V160.932H235.103V154.455H236.864V169H235.103V162.494H227.347V169H225.586ZM246.413 160.946V162.509H240.049V160.946H246.413ZM249.589 169V154.455H258.368V156.017H251.351V160.932H257.913V162.494H251.351V167.438H258.482V169H249.589ZM273.077 154.455V169H271.372L263.446 157.58H263.304V169H261.543V154.455H263.247L271.202 165.903H271.344V154.455H273.077ZM286.544 159C286.388 158.522 286.182 158.093 285.926 157.714C285.676 157.331 285.375 157.004 285.025 156.734C284.679 156.464 284.286 156.259 283.846 156.116C283.405 155.974 282.922 155.903 282.397 155.903C281.535 155.903 280.751 156.126 280.046 156.571C279.34 157.016 278.779 157.672 278.363 158.538C277.946 159.405 277.738 160.468 277.738 161.727C277.738 162.987 277.948 164.05 278.37 164.916C278.791 165.783 279.362 166.438 280.081 166.884C280.801 167.329 281.611 167.551 282.51 167.551C283.344 167.551 284.078 167.374 284.712 167.018C285.351 166.659 285.848 166.152 286.203 165.499C286.563 164.84 286.743 164.066 286.743 163.176L287.283 163.29H282.908V161.727H288.448V163.29C288.448 164.488 288.192 165.529 287.681 166.415C287.174 167.3 286.473 167.987 285.578 168.474C284.688 168.957 283.666 169.199 282.51 169.199C281.222 169.199 280.091 168.896 279.115 168.29C278.145 167.684 277.387 166.822 276.843 165.705C276.303 164.587 276.033 163.261 276.033 161.727C276.033 160.577 276.187 159.542 276.495 158.624C276.807 157.7 277.248 156.914 277.816 156.266C278.384 155.617 279.056 155.12 279.833 154.774C280.609 154.429 281.464 154.256 282.397 154.256C283.164 154.256 283.879 154.372 284.542 154.604C285.209 154.831 285.803 155.155 286.324 155.577C286.85 155.993 287.288 156.493 287.638 157.075C287.989 157.653 288.23 158.295 288.363 159H286.544Z" fill="white"/>
<path d="M71.3352 143V49.9091H103.881C110.366 49.9091 115.714 51.0303 119.926 53.2727C124.138 55.4848 127.275 58.4697 129.335 62.2273C131.396 65.9545 132.426 70.0909 132.426 74.6364C132.426 78.6364 131.714 81.9394 130.29 84.5455C128.896 87.1515 127.047 89.2121 124.744 90.7273C122.472 92.2424 120.002 93.3636 117.335 94.0909V95C120.184 95.1818 123.047 96.1818 125.926 98C128.805 99.8182 131.214 102.424 133.153 105.818C135.093 109.212 136.062 113.364 136.062 118.273C136.062 122.939 135.002 127.136 132.881 130.864C130.759 134.591 127.411 137.545 122.835 139.727C118.259 141.909 112.305 143 104.972 143H71.3352ZM82.608 133H104.972C112.335 133 117.563 131.576 120.653 128.727C123.775 125.848 125.335 122.364 125.335 118.273C125.335 115.121 124.532 112.212 122.926 109.545C121.32 106.848 119.032 104.697 116.062 103.091C113.093 101.455 109.578 100.636 105.517 100.636H82.608V133ZM82.608 90.8182H103.517C106.911 90.8182 109.972 90.1515 112.699 88.8182C115.456 87.4848 117.638 85.6061 119.244 83.1818C120.881 80.7576 121.699 77.9091 121.699 74.6364C121.699 70.5455 120.275 67.0758 117.426 64.2273C114.578 61.3485 110.063 59.9091 103.881 59.9091H82.608V90.8182ZM149.494 59.9091V49.9091H219.312V59.9091H190.04V143H178.767V59.9091H149.494ZM236.71 143V49.9091H292.892V59.9091H247.983V91.3636H289.983V101.364H247.983V133H293.619V143H236.71Z" fill="#FF0000"/>
</svg>
