<svg width="338" height="124" viewBox="0 0 338 124" fill="none" xmlns="http://www.w3.org/2000/svg">
<g clip-path="url(#clip0_11_11)">
<rect width="338" height="124" fill="white"/>
<rect x="34" width="95" height="131" fill="#F7E61A"/>
<path d="M177.214 81L169.004 51.9091H174.672L179.913 73.2869H180.183L185.779 51.9091H190.936L196.547 73.3011H196.802L202.044 51.9091H207.711L199.501 81H194.302L188.478 60.5881H188.251L182.413 81H177.214ZM212.367 81H206.742L216.983 51.9091H223.489L233.745 81H228.12L220.35 57.875H220.123L212.367 81ZM212.551 69.5938H227.892V73.8267H212.551V69.5938ZM255.698 61.1989C255.461 60.4318 255.134 59.7453 254.718 59.1392C254.31 58.5237 253.818 57.9981 253.24 57.5625C252.672 57.1269 252.019 56.8002 251.28 56.5824C250.542 56.3551 249.737 56.2415 248.865 56.2415C247.303 56.2415 245.911 56.6345 244.689 57.4205C243.468 58.2064 242.507 59.3617 241.806 60.8864C241.114 62.4015 240.769 64.2481 240.769 66.4261C240.769 68.6231 241.114 70.4839 241.806 72.0085C242.497 73.5331 243.458 74.6932 244.689 75.4886C245.92 76.2746 247.35 76.6676 248.979 76.6676C250.456 76.6676 251.735 76.3835 252.814 75.8153C253.903 75.2472 254.741 74.4422 255.328 73.4006C255.916 72.3494 256.209 71.1184 256.209 69.7074L257.402 69.892H249.505V65.7727H261.309V69.267C261.309 71.7576 260.778 73.9119 259.718 75.7301C258.657 77.5483 257.199 78.9498 255.343 79.9347C253.487 80.91 251.356 81.3977 248.951 81.3977C246.271 81.3977 243.917 80.7964 241.891 79.5938C239.874 78.3816 238.297 76.6629 237.161 74.4375C236.034 72.2027 235.471 69.5511 235.471 66.483C235.471 64.1345 235.802 62.0369 236.465 60.1903C237.137 58.3438 238.075 56.7765 239.277 55.4886C240.48 54.1913 241.891 53.2064 243.51 52.5341C245.13 51.8523 246.891 51.5114 248.794 51.5114C250.404 51.5114 251.905 51.7481 253.297 52.2216C254.689 52.6856 255.925 53.3485 257.005 54.2102C258.094 55.072 258.989 56.0947 259.689 57.2784C260.39 58.4621 260.849 59.7689 261.067 61.1989H255.698ZM285.893 61.1989C285.656 60.4318 285.33 59.7453 284.913 59.1392C284.506 58.5237 284.013 57.9981 283.436 57.5625C282.868 57.1269 282.214 56.8002 281.475 56.5824C280.737 56.3551 279.932 56.2415 279.061 56.2415C277.498 56.2415 276.106 56.6345 274.885 57.4205C273.663 58.2064 272.702 59.3617 272.001 60.8864C271.31 62.4015 270.964 64.2481 270.964 66.4261C270.964 68.6231 271.31 70.4839 272.001 72.0085C272.692 73.5331 273.654 74.6932 274.885 75.4886C276.116 76.2746 277.546 76.6676 279.174 76.6676C280.652 76.6676 281.93 76.3835 283.01 75.8153C284.099 75.2472 284.937 74.4422 285.524 73.4006C286.111 72.3494 286.404 71.1184 286.404 69.7074L287.598 69.892H279.7V65.7727H291.504V69.267C291.504 71.7576 290.974 73.9119 289.913 75.7301C288.852 77.5483 287.394 78.9498 285.538 79.9347C283.682 80.91 281.551 81.3977 279.146 81.3977C276.466 81.3977 274.113 80.7964 272.086 79.5938C270.069 78.3816 268.493 76.6629 267.356 74.4375C266.229 72.2027 265.666 69.5511 265.666 66.483C265.666 64.1345 265.997 62.0369 266.66 60.1903C267.333 58.3438 268.27 56.7765 269.473 55.4886C270.675 54.1913 272.086 53.2064 273.706 52.5341C275.325 51.8523 277.086 51.5114 278.99 51.5114C280.6 51.5114 282.1 51.7481 283.493 52.2216C284.885 52.6856 286.12 53.3485 287.2 54.2102C288.289 55.072 289.184 56.0947 289.885 57.2784C290.585 58.4621 291.045 59.7689 291.262 61.1989H285.893ZM299.437 81H293.812L304.054 51.9091H310.559L320.815 81H315.19L307.42 57.875H307.193L299.437 81ZM299.622 69.5938H314.963V73.8267H299.622V69.5938Z" fill="#00863C"/>
<path d="M84.5 24L159.411 44.75V86.25L84.5 107L9.58881 86.25V44.75L84.5 24Z" fill="#00863C"/>
<path d="M22.0373 81V51.9091H27.3072V76.5824H40.1197V81H22.0373ZM49.9634 51.9091V81H44.6935V51.9091H49.9634ZM81.6644 66.4545C81.6644 69.589 81.0773 72.2737 79.9031 74.5085C78.7383 76.7339 77.1474 78.4384 75.1303 79.6222C73.1228 80.8059 70.8453 81.3977 68.2979 81.3977C65.7506 81.3977 63.4684 80.8059 61.4513 79.6222C59.4438 78.429 57.8529 76.7197 56.6786 74.4943C55.5138 72.2595 54.9315 69.5795 54.9315 66.4545C54.9315 63.3201 55.5138 60.6402 56.6786 58.4148C57.8529 56.1799 59.4438 54.4706 61.4513 53.2869C63.4684 52.1032 65.7506 51.5114 68.2979 51.5114C70.8453 51.5114 73.1228 52.1032 75.1303 53.2869C77.1474 54.4706 78.7383 56.1799 79.9031 58.4148C81.0773 60.6402 81.6644 63.3201 81.6644 66.4545ZM76.3661 66.4545C76.3661 64.2481 76.0205 62.3873 75.3292 60.8722C74.6474 59.3475 73.7004 58.197 72.4883 57.4205C71.2762 56.6345 69.8794 56.2415 68.2979 56.2415C66.7165 56.2415 65.3197 56.6345 64.1076 57.4205C62.8955 58.197 61.9438 59.3475 61.2525 60.8722C60.5707 62.3873 60.2298 64.2481 60.2298 66.4545C60.2298 68.661 60.5707 70.5265 61.2525 72.0511C61.9438 73.5663 62.8955 74.7169 64.1076 75.5028C65.3197 76.2794 66.7165 76.6676 68.2979 76.6676C69.8794 76.6676 71.2762 76.2794 72.4883 75.5028C73.7004 74.7169 74.6474 73.5663 75.3292 72.0511C76.0205 70.5265 76.3661 68.661 76.3661 66.4545ZM104.985 51.9091H110.255V70.9148C110.255 72.9981 109.762 74.8305 108.777 76.4119C107.802 77.9934 106.429 79.2292 104.658 80.1193C102.887 81 100.818 81.4403 98.4506 81.4403C96.0737 81.4403 93.9999 81 92.229 80.1193C90.4582 79.2292 89.0851 77.9934 88.1097 76.4119C87.1344 74.8305 86.6467 72.9981 86.6467 70.9148V51.9091H91.9165V70.4744C91.9165 71.6866 92.1817 72.7661 92.712 73.7131C93.2518 74.66 94.0094 75.4034 94.9847 75.9432C95.9601 76.4735 97.1154 76.7386 98.4506 76.7386C99.7859 76.7386 100.941 76.4735 101.917 75.9432C102.901 75.4034 103.659 74.66 104.189 73.7131C104.72 72.7661 104.985 71.6866 104.985 70.4744V51.9091ZM121.252 51.9091V81H115.983V51.9091H121.252ZM126.959 81V51.9091H137.868C140.103 51.9091 141.978 52.3258 143.493 53.1591C145.018 53.9924 146.168 55.1383 146.945 56.5966C147.731 58.0455 148.124 59.6932 148.124 61.5398C148.124 63.4053 147.731 65.0625 146.945 66.5114C146.159 67.9602 144.999 69.1013 143.465 69.9347C141.931 70.7585 140.042 71.1705 137.797 71.1705H130.567V66.8381H137.087C138.394 66.8381 139.464 66.6108 140.297 66.1562C141.131 65.7017 141.746 65.0767 142.144 64.2812C142.551 63.4858 142.755 62.572 142.755 61.5398C142.755 60.5076 142.551 59.5985 142.144 58.8125C141.746 58.0265 141.126 57.4157 140.283 56.9801C139.45 56.535 138.375 56.3125 137.059 56.3125H132.229V81H126.959Z" fill="white"/>
<path d="M79.3788 78.5L86.1088 82.71L79.3788 86.92L72.6488 82.71L79.3788 78.5Z" fill="white"/>
</g>
<defs>
<clipPath id="clip0_11_11">
<rect width="338" height="124" fill="white"/>
</clipPath>
</defs>
</svg>
